<?xml version="1.0" standalone="no"?><!DOCTYPE svg PUBLIC "-//W3C//DTD SVG 1.1//EN" "http://www.w3.org/Graphics/SVG/1.1/DTD/svg11.dtd"><svg t="1709618569176" class="icon" viewBox="0 0 1024 1024" version="1.1" xmlns="http://www.w3.org/2000/svg" p-id="8099" xmlns:xlink="http://www.w3.org/1999/xlink" width="200" height="200"><path d="M611.642022 0.011019a114.594385 114.594385 0 0 0-113.823077 91.366985s-16.461924 83.742051-25.078541 113.977338a229.18877 229.18877 0 0 1-99.520816 122.13117c-27.061905 13.376691-127.662553 13.530952-133.810982 13.530952H102.534428a68.315883 68.315883 0 0 0-68.315883 68.315884v546.350769a68.315883 68.315883 0 0 0 68.315883 68.315883h630.269119a204.94765 204.94765 0 0 0 202.58965-174.425877l52.757492-351.606426a136.411393 136.411393 0 0 0-135.045075-156.729859h-155.341504a1137.569647 1137.569647 0 0 0 34.774988-205.498585A123.629712 123.629712 0 0 0 624.093142 1.002701 83.896312 83.896312 0 0 0 611.619984 0.055093zM307.261705 955.507817V407.151647a272.5363 272.5363 0 0 0 96.127059-18.775849 295.653514 295.653514 0 0 0 134.890814-164.575167c9.079401-31.844017 24.615755-110.583582 26.444858-119.817245a46.587025 46.587025 0 0 1 46.763324-35.832783c1.85114 0 3.680243 0.154262 5.55342 0.308523a55.313828 55.313828 0 0 1 47.534633 60.6028 1059.998063 1059.998063 0 0 1-32.306802 191.967633l-26.621157 87.951191h247.479797a67.875136 67.875136 0 0 1 51.831922 23.690185 66.839379 66.839379 0 0 1 15.690616 54.762894l-52.60323 351.606426a135.772309 135.772309 0 0 1-135.045076 116.269226H307.261705v0.154262z m-204.727277 0V409.135011H238.967859v546.372806H102.534428z m0 0" fill="#666666" p-id="8100"></path></svg>