<svg t="1709825023857" class="icon" viewBox="0 0 1024 1024" version="1.1" xmlns="http://www.w3.org/2000/svg" p-id="5601" width="200" height="200"><path d="M851.5 333h-307l20.2-25.1c1.7-2.1 3.1-4.4 4.3-6.8 12.9-28.8 24.2-88-15.1-127.4-44.3-44.2-122.6-31.5-162 21.2l-96.1 116.3c-17.1 10.8-71.9 51.7-101.5 88.2l-100.7 1.1c-16.5 1-29.5 14.7-29.4 31.3v306.7c0 16.9 13.4 30.8 30.4 31.2l117.8 0.3 259.1 86.5c3.2 1.6 32 15.2 65.2 15.2h0.1c39.1 0 69.7-18.8 86.8-54 4-9.1 6.3-17.9 7.5-26.1 22.7-0.7 60.7-11.4 78.8-71.6 6.2-22.9 6.6-44.6 1.3-63.1 22.3-12.1 37.1-33.2 40.9-60.9 2.5-17.7 3.8-38.8-2.6-58.6h99.7c55.4 0 111.3-30.5 111.3-98.7 0-78.8-70.2-103.5-109-105.7z m-3.4 141.7H616.5c-17.3 0-31.3 14-31.3 31.3s14 31.3 31.3 31.3c52.6 0 66.9 9.9 70.6 14.2 4.7 5.3 5.6 17 3 35.8-1 6.8-2.6 18.4-27.6 18.4-3.8 0-6.6-0.4-7.1-0.4-16.9-2.7-32.9 8.5-36.1 25.3-3 16.9 8.1 33.1 25 36.3 2.8 0.5 3.8 1.4 4.8 3 3 4.9 4.9 16.6 0.5 32.9-8 26.3-18 26.3-21.2 26.3-5.9-0.3-11.7-2-16.8-4.8-11.7-7.3-26.9-6-37.2 3.2-10.4 9.3-13.5 24.3-7.7 37 3.6 8.6 3.5 18.4-0.1 27-6.1 12.6-14.8 17.7-30 17.7-19 0-37.7-8.8-41.9-10.5l-268-89c-2.8-0.9-5.8-1.5-8.8-1.6h-91.4V461.2l85.4-0.6c10.2-0.6 20.5-10.8 25.9-19.5 15-24.5 66.4-61.8 95.2-79.5 2.9-1.8 5.5-4.1 7.7-6.7l100.2-121.3c18.6-24.7 50.2-34.1 68.7-15.7 15.3 15.3 6.7 44.9 3.3 54.5l-58.2 72.2c-7.6 9.4-9.1 22.3-3.9 33.2 5.2 10.9 16.2 17.8 28.3 17.7h370.3c8.1 0.5 48.5 5.3 48.5 43.1 0.1 31.3-30.4 36.1-49.8 36.1z" p-id="5602" fill="#ffffff"></path><path d="M223 769.5c17.6 0 32-14.4 32-32V415.7c0-17.6-14.4-32-32-32s-32 14.4-32 32v321.8c0 17.6 14.4 32 32 32z" p-id="5603" fill="#ffffff"></path></svg>