<?xml version="1.0" standalone="no"?><!DOCTYPE svg PUBLIC "-//W3C//DTD SVG 1.1//EN" "http://www.w3.org/Graphics/SVG/1.1/DTD/svg11.dtd"><svg t="1709618522462" class="icon" viewBox="0 0 1024 1024" version="1.1" xmlns="http://www.w3.org/2000/svg" p-id="7964" xmlns:xlink="http://www.w3.org/1999/xlink" width="200" height="200"><path d="M1009.280252 449.406406c-10.771321-42.760896-37.562501-79.45154-74.593905-102.180193-23.865547-14.075577-50.92074-21.398356-78.465073-21.322632H745.266229c15.820314-48.302099 27.00812-101.992929 27.42563-107.493199l0.075725-3.03615c0-42.077328-3.437286-78.655408-15.122419-108.819404-10.169617-27.205619-31.649837-58.032718-54.376445-75.561953-20.750603-15.253402-44.838208-26.099425-70.301136-28.073382-22.23235-1.592264-54.30072 1.139963-75.512834 8.119934-31.0379 10.245342-53.839209 31.644721-67.691705 63.706951-10.245342 23.639396-10.743692 58.556651-14.422478 81.778538l-0.154519 1.402953c-0.227174 1.823532-0.64673 3.643993-0.908696 5.463432-1.366114 8.53949-2.506077 16.582677-4.098341 23.790846-12.862959 59.798944-31.482015 114.930589-72.384588 159.62758-20.188808 22.234397-44.792159 41.585117-70.061682 57.446363a103.932094 103.932094 0 0 1-54.335512 15.216564h-182.660157c-42.230824 0.112564-76.416414 35.059494-76.492138 78.236875V879.759875c0 42.874483 34.109866 77.744665 76.110445 77.744665h229.143841c32.933063 0 62.167898 9.03477 97.300046 20.569478l1.597381 0.48914c59.035558 19.544125 128.400369 39.810704 267.384793 39.810705h1.598404c85.446068-0.075725 152.903435-18.599613 192.214767-63.295582 21.515013-24.284079 35.099403-54.79293 38.891775-87.304392 26.41051-20.645203 43.180452-45.952588 50.124608-75.702146 6.559393-28.985148 1.816369-55.281047-4.136204-73.415056 21.779026-21.36561 35.019585-46.140876 39.042201-73.496921 3.37691-25.193799-0.683569-50.806129-11.611455-73.614602 9.104355-17.906835 15.328104-36.116569 18.822694-54.105268 4.437056-22.499433 3.942799-45.682435-1.366114-67.954695l-0.081864-0.078795z m-90.644463 146.459677c2.541893 3.532453 13.205766 20.301372 10.361999 38.515198-2.393513 14.418384-13.170974 28.341488-32.025391 41.284266-8.237615 5.577019-14.001899 14.262842-16.012696 24.12956-1.973958 9.901511-0.037862 20.22667 5.388731 28.64848 0.494257 0.907673 13.847379 24.359804 8.538467 47.086412-3.456728 14.417361-14.346753 27.318182-32.55444 38.514175-12.561084 7.398504-19.693528 21.662369-18.175965 36.385699 0.073678 1.592264 1.401929 29.254278-20.947078 53.615105-24.399713 26.749224-74.173326 36.773532-136.134517 36.92191h-1.442862c-126.385479 0-189.834556-18.181081-244.165975-36.011168-33.012881-10.854209-65.925479-21.212114-102.919021-24.01802V483.862149c9.750061-3.794419 20.50808-8.42488 29.155017-13.661137 94.631264-59.381435 151.919015-155.453515 175.937035-266.246877 2.542916-11.156084 4.323469-22.994714 6.03239-33.997302 7.928576-51.449789 10.399861-78.477352 30.856775-85.117586 9.636474-3.225461 53.199643-12.104689 78.775134 6.982018 24.016996 17.83418 38.035268 66.030879 38.265512 122.453936-1.177825 16.923438-14.757099 67.311035-28.640294 100.964506-8.121981 19.505239-6.147 41.892109 5.311983 59.610656 11.417027 17.681708 30.807656 28.343535 51.560306 28.380375H856.295975c14.567787 0 28.64848 3.718695 40.597627 10.926863 15.369036 8.991792 33.469276 29.179576 39.235606 53.500495 5.994528 25.00551-0.721431 53.007261-19.656688 83.510995-8.878205 13.775748-7.963369 31.838126 2.163269 44.659129v0.037863z m-829.039703-98.458429c0-0.569982 0.457418-1.026376 1.065262-1.026377h172.640965v383.985418h-172.754552c-0.569982 0-0.951675-0.419556-0.951675-0.683568V497.407654z m0 0" fill="#0E88EB" p-id="7965"></path></svg>